<svg xmlns="http://www.w3.org/2000/svg" width="1280" height="760" viewBox="0 0 1280 760" role="img" aria-labelledby="title description">
  <title id="title">Windvale milestone progress on 15 August 2026</title>
  <desc id="description">Milestones 1, 2, and 3 are complete, the signed Windvale 0.1 preview is published, Milestone 4 is the active offline package lifecycle, and OS-1 and durable application work continue independently.</desc>
  <defs>
    <linearGradient id="background" x1="0" y1="0" x2="1" y2="1"><stop offset="0" stop-color="#06121d"/><stop offset="1" stop-color="#0b2132"/></linearGradient>
    <linearGradient id="focus" x1="0" y1="0" x2="1" y2="0"><stop offset="0" stop-color="#12334b"/><stop offset="1" stop-color="#10283b"/></linearGradient>
    <filter id="shadow" x="-20%" y="-20%" width="140%" height="140%"><feDropShadow dx="0" dy="4" stdDeviation="6" flood-color="#000000" flood-opacity="0.28"/></filter>
  </defs>
  <rect width="1280" height="760" rx="24" fill="url(#background)"/>
  <path d="M0 0H1280V8H0Z" fill="#55b7ff"/>
  <g font-family="Segoe UI, Inter, Arial, sans-serif">
    <text x="48" y="62" fill="#f5f9fc" font-size="32" font-weight="700" letter-spacing="2">WINDVALE PROGRESS</text>
    <text x="48" y="92" fill="#9db7c9" font-size="16">Dependency-based milestone snapshot · 15 August 2026</text>
    <text x="1232" y="62" text-anchor="end" fill="#59d98e" font-size="15" font-weight="700">v0.1.0 PUBLISHED</text>
    <text x="1232" y="88" text-anchor="end" fill="#9db7c9" font-size="14">Signed Windows + Linux preview</text>
    <text x="48" y="138" fill="#75cfff" font-size="15" font-weight="700" letter-spacing="1.5">COMPLETED PRODUCT PATH</text>
    <path d="M260 229H1020" fill="none" stroke="#365b70" stroke-width="4"/>
    <g filter="url(#shadow)">
      <g transform="translate(48 166)">
        <rect width="330" height="126" rx="16" fill="#10283a" stroke="#59d98e" stroke-width="1.5"/><rect width="330" height="6" rx="3" fill="#59d98e"/>
        <circle cx="38" cy="42" r="14" fill="#59d98e"/><path d="M31 42l5 5 10-12" fill="none" stroke="#062014" stroke-width="3" stroke-linecap="round" stroke-linejoin="round"/>
        <text x="66" y="38" fill="#59d98e" font-size="13" font-weight="700" letter-spacing="1.2">MILESTONE 1 · COMPLETE</text>
        <text x="24" y="76" fill="#f5f9fc" font-size="20" font-weight="600">Predictable feedback</text><text x="24" y="102" fill="#9db7c9" font-size="13">Focused local and dual-host development gates</text>
      </g>
      <g transform="translate(475 166)">
        <rect width="330" height="126" rx="16" fill="#10283a" stroke="#59d98e" stroke-width="1.5"/><rect width="330" height="6" rx="3" fill="#59d98e"/>
        <circle cx="38" cy="42" r="14" fill="#59d98e"/><path d="M31 42l5 5 10-12" fill="none" stroke="#062014" stroke-width="3" stroke-linecap="round" stroke-linejoin="round"/>
        <text x="66" y="38" fill="#59d98e" font-size="13" font-weight="700" letter-spacing="1.2">MILESTONE 2 · COMPLETE</text>
        <text x="24" y="76" fill="#f5f9fc" font-size="20" font-weight="600">Package-backed app</text><text x="24" y="102" fill="#9db7c9" font-size="13">WVDB Query · Bundle 1 · bounded store</text>
      </g>
      <g transform="translate(902 166)">
        <rect width="330" height="126" rx="16" fill="#10283a" stroke="#59d98e" stroke-width="1.5"/><rect width="330" height="6" rx="3" fill="#59d98e"/>
        <circle cx="38" cy="42" r="14" fill="#59d98e"/><path d="M31 42l5 5 10-12" fill="none" stroke="#062014" stroke-width="3" stroke-linecap="round" stroke-linejoin="round"/>
        <text x="66" y="38" fill="#59d98e" font-size="13" font-weight="700" letter-spacing="1.2">MILESTONE 3 · COMPLETE</text>
        <text x="24" y="76" fill="#f5f9fc" font-size="20" font-weight="600">Windvale 0.1 preview</text><text x="24" y="102" fill="#9db7c9" font-size="13">Installers · signing · offline verification</text>
      </g>
    </g>
    <g transform="translate(48 330)" filter="url(#shadow)">
      <rect width="1184" height="112" rx="16" fill="url(#focus)" stroke="#55b7ff" stroke-width="1.5"/>
      <circle cx="40" cy="40" r="14" fill="none" stroke="#55b7ff" stroke-width="3"/><circle cx="40" cy="40" r="5" fill="#55b7ff"/>
      <text x="70" y="34" fill="#55b7ff" font-size="14" font-weight="700" letter-spacing="1.5">OS-1 · ONGOING PARALLEL TRACK</text>
      <text x="70" y="63" fill="#f5f9fc" font-size="19" font-weight="600">Launch and service composition</text>
      <text x="70" y="88" fill="#9db7c9" font-size="14">Portability complete · resource, provider, and supervision foundations partial · atomic launch open</text>
      <text x="1140" y="63" text-anchor="end" fill="#75cfff" font-size="14" font-weight="700">INDEPENDENT OF v0.1.0</text>
    </g>
    <text x="48" y="492" fill="#f4b860" font-size="15" font-weight="700" letter-spacing="1.5">MILESTONE 4 · ACTIVE</text>
    <text x="1232" y="492" text-anchor="end" fill="#9db7c9" font-size="13">Offline lifecycle selected · no v0.2.0 release assigned</text>
    <g filter="url(#shadow)">
      <g transform="translate(48 520)">
        <rect width="368" height="142" rx="16" fill="#10283a" stroke="#f4b860"/><text x="24" y="34" fill="#f4b860" font-size="13" font-weight="700">CURRENT MILESTONE</text>
        <text x="24" y="65" fill="#f5f9fc" font-size="19" font-weight="600">Offline package lifecycle</text><text x="24" y="92" fill="#9db7c9" font-size="13">Install · generations · recovery · rollback</text><text x="24" y="118" fill="#9db7c9" font-size="13">No registry or networking prerequisite</text>
      </g>
      <g transform="translate(456 520)">
        <rect width="368" height="142" rx="16" fill="#10283a" stroke="#8299a8"/><text x="24" y="34" fill="#aab9c3" font-size="13" font-weight="700">PARALLEL TRACK</text>
        <text x="24" y="65" fill="#f5f9fc" font-size="19" font-weight="600">Complete OS-1</text><text x="24" y="92" fill="#9db7c9" font-size="13">Atomic launch · two clients · supervision</text><text x="24" y="118" fill="#9db7c9" font-size="13">Advances the vertical-integration target</text>
      </g>
      <g transform="translate(864 520)">
        <rect width="368" height="142" rx="16" fill="#10283a" stroke="#8299a8"/><text x="24" y="34" fill="#aab9c3" font-size="13" font-weight="700">INDEPENDENT WORK</text>
        <text x="24" y="65" fill="#f5f9fc" font-size="19" font-weight="600">Durable application</text><text x="24" y="92" fill="#9db7c9" font-size="13">One workload selects the database increment</text><text x="24" y="118" fill="#9db7c9" font-size="13">Must stay bounded by a named user outcome</text>
      </g>
    </g>
    <g transform="translate(48 710)">
      <text x="0" y="0" fill="#75cfff" font-size="13" font-weight="700" letter-spacing="1.4">PERMANENT CONTRACT</text><text x="198" y="0" fill="#f5f9fc" font-size="15" font-weight="600">ONE CANONICAL WVB</text>
      <path d="M362 -5h42" stroke="#47677b" stroke-width="2"/><path d="M397 -11l9 6-9 6" fill="none" stroke="#47677b" stroke-width="2"/>
      <text x="426" y="0" fill="#f5f9fc" font-size="15">Windows</text><text x="537" y="0" fill="#6f8da1" font-size="15">+</text><text x="561" y="0" fill="#f5f9fc" font-size="15">Linux</text><text x="637" y="0" fill="#6f8da1" font-size="15">+</text><text x="661" y="0" fill="#f5f9fc" font-size="15">Windvale OS</text><text x="1184" y="0" text-anchor="end" fill="#59d98e" font-size="12">Qualified and preserved</text>
    </g>
  </g>
</svg>
